<svg width="24" height="24" viewBox="0 0 24 24" fill="none" xmlns="http://www.w3.org/2000/svg">
<path d="M20.046 12.334C20.0462 14.0197 19.5465 15.6677 18.6101 17.0694C17.6737 18.4711 16.3427 19.5637 14.7853 20.209C13.228 20.8542 11.5142 21.0231 9.86086 20.6944C8.2075 20.3656 6.68875 19.554 5.49669 18.362C4.30462 17.1701 3.49279 15.6515 3.16384 13.9981C2.8349 12.3448 3.00363 10.6311 3.64868 9.07363C4.29374 7.5162 5.38615 6.18503 6.78777 5.24847C8.1894 4.3119 9.83727 3.81201 11.523 3.81201C12.6422 3.81188 13.7505 4.03221 14.7845 4.46042C15.8186 4.88864 16.7582 5.51634 17.5496 6.30769C18.3411 7.09905 18.9689 8.03855 19.3972 9.07255C19.8255 10.1066 20.046 11.2148 20.046 12.334ZM11.752 6.62901C10.9487 6.59867 10.1522 6.78644 9.44704 7.17239C8.74189 7.55833 8.15441 8.12804 7.747 8.82101C7.68838 8.90816 7.66515 9.01436 7.68206 9.11802C7.69896 9.22168 7.75473 9.31501 7.838 9.37901L9.03 10.279C9.11601 10.3444 9.22426 10.3734 9.33144 10.3597C9.43862 10.3461 9.53614 10.2909 9.603 10.206C10.217 9.42701 10.638 8.97601 11.572 8.97601C12.272 8.97601 13.142 9.42801 13.142 10.109C13.142 10.624 12.717 10.888 12.024 11.277C11.216 11.73 10.146 12.294 10.146 13.705V13.849C10.146 13.9031 10.1567 13.9567 10.1774 14.0067C10.1981 14.0567 10.2284 14.1021 10.2667 14.1403C10.3049 14.1786 10.3504 14.2089 10.4003 14.2297C10.4503 14.2504 10.5039 14.261 10.558 14.261H12.482C12.5361 14.261 12.5897 14.2504 12.6397 14.2297C12.6897 14.2089 12.7351 14.1786 12.7733 14.1403C12.8116 14.1021 12.8419 14.0567 12.8626 14.0067C12.8833 13.9567 12.894 13.9031 12.894 13.849V13.803C12.894 12.825 15.753 12.784 15.753 10.137C15.757 8.14201 13.689 6.62901 11.752 6.62901ZM11.523 15.149C11.2103 15.149 10.9046 15.2417 10.6446 15.4155C10.3847 15.5892 10.182 15.8361 10.0623 16.125C9.94269 16.4139 9.91138 16.7318 9.97238 17.0385C10.0334 17.3451 10.184 17.6268 10.4051 17.8479C10.6262 18.0691 10.9079 18.2196 11.2146 18.2806C11.5212 18.3416 11.8391 18.3103 12.128 18.1907C12.4169 18.071 12.6638 17.8684 12.8376 17.6084C13.0113 17.3484 13.104 17.0427 13.104 16.73C13.1035 16.3109 12.9367 15.909 12.6404 15.6127C12.344 15.3163 11.9421 15.1495 11.523 15.149Z" fill="#FFFFFF"/>
</svg>
