<svg width="54" height="54" viewBox="0 0 54 54" fill="none" xmlns="http://www.w3.org/2000/svg">
<path d="M52.7344 3.37498H48.0938V0.421856C48.1049 0.309968 48.0712 0.198218 48 0.111189C47.9288 0.0241608 47.826 -0.0310172 47.7141 -0.042206C47.6022 -0.0533949 47.4904 -0.019678 47.4034 0.0515272C47.3164 0.122732 47.2612 0.225593 47.25 0.337481C47.25 0.421856 47.25 7.17186 47.25 7.25623C47.2445 7.31163 47.2281 7.3654 47.2017 7.41446C47.1754 7.46353 47.1397 7.50693 47.0966 7.54218C47.0535 7.57744 47.0039 7.60387 46.9506 7.61995C46.8973 7.63603 46.8413 7.64146 46.7859 7.63592C46.7305 7.63038 46.6768 7.61398 46.6277 7.58766C46.5786 7.56134 46.5352 7.52562 46.5 7.48252C46.4647 7.43943 46.4383 7.38982 46.4222 7.33651C46.4061 7.28321 46.4007 7.22726 46.4062 7.17186V3.37498H43.0312V0.421856C43.0312 0.309968 42.9868 0.202663 42.9077 0.123546C42.8286 0.0444288 42.7213 -1.85817e-05 42.6094 -1.85817e-05C42.4975 -1.85817e-05 42.3902 0.0444288 42.3111 0.123546C42.2319 0.202663 42.1875 0.309968 42.1875 0.421856C42.1875 7.66123 42.1875 7.17186 42.1875 7.25623C42.182 7.31163 42.1656 7.3654 42.1392 7.41446C42.1129 7.46353 42.0772 7.50693 42.0341 7.54218C41.991 7.57744 41.9414 7.60387 41.8881 7.61995C41.8348 7.63603 41.7788 7.64146 41.7234 7.63592C41.668 7.63038 41.6143 7.61398 41.5652 7.58766C41.5161 7.56134 41.4727 7.52562 41.4375 7.48252C41.4022 7.43943 41.3758 7.38982 41.3597 7.33651C41.3436 7.28321 41.3382 7.22726 41.3438 7.17186V3.37498H37.9688V0.421856C37.9743 0.366455 37.9689 0.310505 37.9528 0.2572C37.9367 0.203896 37.9103 0.154281 37.875 0.111189C37.8398 0.0680971 37.7964 0.0323713 37.7473 0.0060517C37.6982 -0.0202679 37.6445 -0.0366659 37.5891 -0.0422061C37.5337 -0.0477462 37.4777 -0.04232 37.4244 -0.0262372C37.3711 -0.0101544 37.3215 0.0162699 37.2784 0.0515272C37.2353 0.0867844 37.1996 0.130184 37.1733 0.179248C37.1469 0.228312 37.1305 0.28208 37.125 0.337481C37.125 0.421856 37.125 7.17186 37.125 7.25623C37.1195 7.31163 37.1031 7.3654 37.0767 7.41446C37.0504 7.46353 37.0147 7.50693 36.9716 7.54218C36.9285 7.57744 36.8789 7.60387 36.8256 7.61995C36.7723 7.63603 36.7163 7.64146 36.6609 7.63592C36.6055 7.63038 36.5518 7.61398 36.5027 7.58766C36.4536 7.56134 36.4102 7.52562 36.375 7.48252C36.3397 7.43943 36.3133 7.38982 36.2972 7.33651C36.2811 7.28321 36.2757 7.22726 36.2812 7.17186V3.37498H32.9062V0.421856C32.9062 0.309968 32.8618 0.202663 32.7827 0.123546C32.7036 0.0444288 32.5963 -1.85817e-05 32.4844 -1.85817e-05C32.3725 -1.85817e-05 32.2652 0.0444288 32.1861 0.123546C32.1069 0.202663 32.0625 0.309968 32.0625 0.421856C32.0625 7.66123 32.0625 7.17186 32.0625 7.25623C32.057 7.31163 32.0406 7.3654 32.0142 7.41446C31.9879 7.46353 31.9522 7.50693 31.9091 7.54218C31.866 7.57744 31.8164 7.60387 31.7631 7.61995C31.7098 7.63603 31.6538 7.64146 31.5984 7.63592C31.543 7.63038 31.4893 7.61398 31.4402 7.58766C31.3911 7.56134 31.3477 7.52562 31.3125 7.48252C31.2772 7.43943 31.2508 7.38982 31.2347 7.33651C31.2186 7.28321 31.2132 7.22726 31.2188 7.17186V3.37498H27.8438V0.421856C27.8493 0.366455 27.8439 0.310505 27.8278 0.2572C27.8117 0.203896 27.7853 0.154281 27.75 0.111189C27.7148 0.0680971 27.6714 0.0323713 27.6223 0.0060517C27.5732 -0.0202679 27.5195 -0.0366659 27.4641 -0.0422061C27.4087 -0.0477462 27.3527 -0.04232 27.2994 -0.0262372C27.2461 -0.0101544 27.1965 0.0162699 27.1534 0.0515272C27.1103 0.0867844 27.0746 0.130184 27.0483 0.179248C27.0219 0.228312 27.0055 0.28208 27 0.337481C27 0.421856 27 7.17186 27 7.25623C26.9888 7.36812 26.9336 7.47098 26.8466 7.54218C26.7596 7.61339 26.6478 7.64711 26.5359 7.63592C26.424 7.62473 26.3212 7.56955 26.25 7.48252C26.1788 7.39549 26.1451 7.28374 26.1562 7.17186V3.37498H22.7812V0.421856C22.7812 0.309968 22.7368 0.202663 22.6577 0.123546C22.5786 0.0444288 22.4713 -1.85817e-05 22.3594 -1.85817e-05C22.2475 -1.85817e-05 22.1402 0.0444288 22.0611 0.123546C21.9819 0.202663 21.9375 0.309968 21.9375 0.421856V7.17186C21.9375 7.28374 21.8931 7.39105 21.8139 7.47017C21.7348 7.54928 21.6275 7.59373 21.5156 7.59373C21.4037 7.59373 21.2964 7.54928 21.2173 7.47017C21.1382 7.39105 21.0938 7.28374 21.0938 7.17186V3.37498H17.7188V0.421856C17.7299 0.309968 17.6962 0.198218 17.625 0.111189C17.5538 0.0241607 17.451 -0.0310173 17.3391 -0.0422061C17.2272 -0.0533949 17.1154 -0.019678 17.0284 0.0515272C16.9414 0.122732 16.8862 0.225593 16.875 0.337481C16.875 0.421856 16.875 7.17186 16.875 7.25623C16.8638 7.36812 16.8086 7.47098 16.7216 7.54218C16.6346 7.61339 16.5228 7.64711 16.4109 7.63592C16.2991 7.62473 16.1962 7.56955 16.125 7.48252C16.0538 7.39549 16.0201 7.28374 16.0312 7.17186V3.37498H12.6562V0.421856C12.6562 0.309968 12.6118 0.202663 12.5327 0.123546C12.4536 0.0444288 12.3463 -1.85817e-05 12.2344 -1.85817e-05C12.1225 -1.85817e-05 12.0152 0.0444288 11.9361 0.123546C11.8569 0.202663 11.8125 0.309968 11.8125 0.421856C11.8125 7.66123 11.8125 7.17186 11.8125 7.25623C11.807 7.31163 11.7906 7.3654 11.7642 7.41446C11.7379 7.46353 11.7022 7.50693 11.6591 7.54218C11.616 7.57744 11.5664 7.60387 11.5131 7.61995C11.4598 7.63603 11.4038 7.64146 11.3484 7.63592C11.293 7.63038 11.2393 7.61398 11.1902 7.58766C11.1411 7.56134 11.0977 7.52562 11.0625 7.48252C11.0272 7.43943 11.0008 7.38982 10.9847 7.33651C10.9686 7.28321 10.9632 7.22726 10.9688 7.17186V3.37498H7.59375V0.421856C7.60494 0.309968 7.57122 0.198218 7.50002 0.111189C7.42881 0.0241607 7.32595 -0.0310173 7.21406 -0.0422061C7.10217 -0.0533949 6.99042 -0.019678 6.9034 0.0515272C6.81637 0.122732 6.76119 0.225593 6.75 0.337481C6.75 0.421856 6.75 7.17186 6.75 7.25623C6.73881 7.36812 6.68363 7.47098 6.5966 7.54218C6.50958 7.61339 6.39783 7.64711 6.28594 7.63592C6.17405 7.62473 6.07119 7.56955 5.99998 7.48252C5.92878 7.39549 5.89506 7.28374 5.90625 7.17186V3.37498H1.26562C1.04185 3.37498 0.827237 3.46388 0.669004 3.62211C0.51077 3.78034 0.421875 3.99496 0.421875 4.21873V13.5C0.421875 13.7238 0.51077 13.9384 0.669004 14.0966C0.827237 14.2548 1.04185 14.3437 1.26562 14.3437H52.7344C52.9582 14.3437 53.1728 14.2548 53.331 14.0966C53.4892 13.9384 53.5781 13.7238 53.5781 13.5V4.21873C53.5781 3.99496 53.4892 3.78034 53.331 3.62211C53.1728 3.46388 52.9582 3.37498 52.7344 3.37498Z" fill="#F9B316"/>
<path d="M44.3223 41.9048L9.40796 51.8315L46.8241 45.5034C46.1429 45.1561 45.5581 44.6459 45.1216 44.0181C44.6852 43.3902 44.4106 42.6643 44.3223 41.9048Z" fill="#F9B316"/>
<path d="M27 39.2344C28.8357 39.2344 30.6301 38.69 32.1564 37.6702C33.6827 36.6504 34.8723 35.2008 35.5748 33.5049C36.2772 31.809 36.461 29.9428 36.1029 28.1424C35.7448 26.342 34.8608 24.6883 33.5628 23.3903C32.2648 22.0923 30.6111 21.2083 28.8107 20.8502C27.0103 20.4921 25.1441 20.6759 23.4482 21.3784C21.7523 22.0808 20.3028 23.2704 19.2829 24.7967C18.2631 26.323 17.7188 28.1175 17.7188 29.9531C17.7188 32.4147 18.6966 34.7754 20.4372 36.5159C22.1777 38.2565 24.5385 39.2344 27 39.2344ZM22.2413 29.6494L25.3125 32.7206L31.7587 26.2744C31.8393 26.1938 31.9486 26.1485 32.0625 26.1485C32.1764 26.1485 32.2857 26.1938 32.3662 26.2744C32.4468 26.3549 32.4921 26.4642 32.4921 26.5781C32.4921 26.692 32.4468 26.8013 32.3662 26.8819L25.6163 33.6319C25.5769 33.6727 25.5297 33.7052 25.4775 33.7274C25.4253 33.7495 25.3692 33.761 25.3125 33.761C25.2558 33.761 25.1997 33.7495 25.1475 33.7274C25.0953 33.7052 25.0481 33.6727 25.0087 33.6319L21.6337 30.2569C21.5939 30.217 21.5622 30.1696 21.5406 30.1175C21.519 30.0654 21.5079 30.0095 21.5079 29.9531C21.5079 29.8967 21.519 29.8408 21.5406 29.7887C21.5622 29.7366 21.5939 29.6893 21.6337 29.6494C21.6736 29.6095 21.721 29.5778 21.7731 29.5562C21.8252 29.5347 21.8811 29.5235 21.9375 29.5235C21.9939 29.5235 22.0498 29.5347 22.1019 29.5562C22.154 29.5778 22.2014 29.6095 22.2413 29.6494Z" fill="#F9B316"/>
<path d="M1.35832 53.3039C1.48488 53.1562 -1.367 54 44.5499 40.9472C44.6149 40.9188 44.6859 40.9073 44.7566 40.9136C44.8272 40.92 44.8951 40.944 44.9539 40.9835C45.0128 41.0231 45.0607 41.0768 45.0933 41.1397C45.126 41.2027 45.1422 41.2729 45.1405 41.3438C45.1405 42.3507 45.5405 43.3165 46.2526 44.0285C46.9646 44.7406 47.9304 45.1406 48.9374 45.1406C49.9444 45.1406 50.9101 44.7406 51.6222 44.0285C52.3342 43.3165 52.7343 42.3507 52.7343 41.3438C52.7343 41.175 52.7343 43.7611 52.7343 15.1875H1.2655C1.2655 58.0627 1.21488 53.4473 1.35832 53.3039ZM26.9999 19.8281C29.0024 19.8281 30.96 20.4219 32.625 21.5345C34.2901 22.647 35.5878 24.2284 36.3542 26.0785C37.1205 27.9286 37.321 29.9644 36.9303 31.9284C36.5397 33.8925 35.5753 35.6966 34.1593 37.1126C32.7433 38.5286 30.9392 39.4929 28.9752 39.8836C27.0111 40.2743 24.9753 40.0737 23.1252 39.3074C21.2751 38.5411 19.6938 37.2433 18.5813 35.5783C17.4687 33.9132 16.8749 31.9557 16.8749 29.9531C16.8749 27.2678 17.9416 24.6925 19.8404 22.7937C21.7392 20.8949 24.3146 19.8281 26.9999 19.8281Z" fill="#F9B316"/>
<path d="M48.988 45.9843L4.26929 53.5781H52.7343V44.0226C52.3099 44.623 51.7489 45.1139 51.0976 45.455C50.4463 45.7961 49.7232 45.9775 48.988 45.9843Z" fill="#F9B316"/>
</svg>
