<svg width="24" height="24" viewBox="0 0 24 24" fill="none" xmlns="http://www.w3.org/2000/svg">
<path d="M6.5 15H4.5C4.36739 15 4.24021 15.0527 4.14645 15.1464C4.05268 15.2402 4 15.3674 4 15.5V17.5C4 17.6326 4.05268 17.7598 4.14645 17.8536C4.24021 17.9473 4.36739 18 4.5 18H6.5C6.63261 18 6.75979 17.9473 6.85355 17.8536C6.94732 17.7598 7 17.6326 7 17.5V15.5C7 15.3674 6.94732 15.2402 6.85355 15.1464C6.75979 15.0527 6.63261 15 6.5 15ZM6.5 5H4.5C4.36739 5 4.24021 5.05268 4.14645 5.14645C4.05268 5.24021 4 5.36739 4 5.5V7.5C4 7.63261 4.05268 7.75979 4.14645 7.85355C4.24021 7.94732 4.36739 8 4.5 8H6.5C6.63261 8 6.75979 7.94732 6.85355 7.85355C6.94732 7.75979 7 7.63261 7 7.5V5.5C7 5.36739 6.94732 5.24021 6.85355 5.14645C6.75979 5.05268 6.63261 5 6.5 5ZM6.5 10H4.5C4.36739 10 4.24021 10.0527 4.14645 10.1464C4.05268 10.2402 4 10.3674 4 10.5V12.5C4 12.6326 4.05268 12.7598 4.14645 12.8536C4.24021 12.9473 4.36739 13 4.5 13H6.5C6.63261 13 6.75979 12.9473 6.85355 12.8536C6.94732 12.7598 7 12.6326 7 12.5V10.5C7 10.3674 6.94732 10.2402 6.85355 10.1464C6.75979 10.0527 6.63261 10 6.5 10ZM19.5 15.5H9.5C9.36739 15.5 9.24021 15.5527 9.14645 15.6464C9.05268 15.7402 9 15.8674 9 16V17C9 17.1326 9.05268 17.2598 9.14645 17.3536C9.24021 17.4473 9.36739 17.5 9.5 17.5H19.5C19.6326 17.5 19.7598 17.4473 19.8536 17.3536C19.9473 17.2598 20 17.1326 20 17V16C20 15.8674 19.9473 15.7402 19.8536 15.6464C19.7598 15.5527 19.6326 15.5 19.5 15.5ZM19.5 5.5H9.5C9.36739 5.5 9.24021 5.55268 9.14645 5.64645C9.05268 5.74021 9 5.86739 9 6V7C9 7.13261 9.05268 7.25979 9.14645 7.35355C9.24021 7.44732 9.36739 7.5 9.5 7.5H19.5C19.6326 7.5 19.7598 7.44732 19.8536 7.35355C19.9473 7.25979 20 7.13261 20 7V6C20 5.86739 19.9473 5.74021 19.8536 5.64645C19.7598 5.55268 19.6326 5.5 19.5 5.5ZM19.5 10.5H9.5C9.36739 10.5 9.24021 10.5527 9.14645 10.6464C9.05268 10.7402 9 10.8674 9 11V12C9 12.1326 9.05268 12.2598 9.14645 12.3536C9.24021 12.4473 9.36739 12.5 9.5 12.5H19.5C19.6326 12.5 19.7598 12.4473 19.8536 12.3536C19.9473 12.2598 20 12.1326 20 12V11C20 10.8674 19.9473 10.7402 19.8536 10.6464C19.7598 10.5527 19.6326 10.5 19.5 10.5Z" fill="#FFFFFF"/>
</svg>
