<svg width="54" height="54" viewBox="0 0 54 54" fill="none" xmlns="http://www.w3.org/2000/svg">
<path d="M27 10.9688C27.4476 10.9688 27.8768 10.791 28.1932 10.4745C28.5097 10.158 28.6875 9.7288 28.6875 9.28125V2.53125C28.6875 2.0837 28.5097 1.65447 28.1932 1.33801C27.8768 1.02154 27.4476 0.84375 27 0.84375C26.5524 0.84375 26.1232 1.02154 25.8068 1.33801C25.4903 1.65447 25.3125 2.0837 25.3125 2.53125V9.28125C25.3125 9.7288 25.4903 10.158 25.8068 10.4745C26.1232 10.791 26.5524 10.9688 27 10.9688Z" fill="#F9B316"/>
<path d="M27 43.0312C26.5524 43.0312 26.1232 43.209 25.8068 43.5255C25.4903 43.842 25.3125 44.2712 25.3125 44.7188V51.4688C25.3125 51.9163 25.4903 52.3455 25.8068 52.662C26.1232 52.9785 26.5524 53.1562 27 53.1562C27.4476 53.1562 27.8768 52.9785 28.1932 52.662C28.5097 52.3455 28.6875 51.9163 28.6875 51.4688V44.7188C28.6875 44.2712 28.5097 43.842 28.1932 43.5255C27.8768 43.209 27.4476 43.0312 27 43.0312Z" fill="#F9B316"/>
<path d="M51.4688 25.3125H44.7188C44.2712 25.3125 43.842 25.4903 43.5255 25.8068C43.209 26.1232 43.0312 26.5524 43.0312 27C43.0312 27.4476 43.209 27.8768 43.5255 28.1932C43.842 28.5097 44.2712 28.6875 44.7188 28.6875H51.4688C51.9163 28.6875 52.3455 28.5097 52.662 28.1932C52.9785 27.8768 53.1562 27.4476 53.1562 27C53.1562 26.5524 52.9785 26.1232 52.662 25.8068C52.3455 25.4903 51.9163 25.3125 51.4688 25.3125Z" fill="#F9B316"/>
<path d="M10.9688 27C10.9688 26.5524 10.791 26.1232 10.4745 25.8068C10.158 25.4903 9.7288 25.3125 9.28125 25.3125H2.53125C2.0837 25.3125 1.65447 25.4903 1.33801 25.8068C1.02154 26.1232 0.84375 26.5524 0.84375 27C0.84375 27.4476 1.02154 27.8768 1.33801 28.1932C1.65447 28.5097 2.0837 28.6875 2.53125 28.6875H9.28125C9.7288 28.6875 10.158 28.5097 10.4745 28.1932C10.791 27.8768 10.9688 27.4476 10.9688 27Z" fill="#F9B316"/>
<path d="M30.375 46.1109V49.4859C35.1924 48.7716 39.653 46.5289 43.0996 43.0883C46.5463 39.6477 48.7968 35.1911 49.5197 30.375H46.1447C45.4503 34.2999 43.5642 37.9158 40.7428 40.7312C37.9213 43.5466 34.3014 45.425 30.375 46.1109Z" fill="#F9B316"/>
<path d="M23.6247 7.88916V4.51416C18.8073 5.22851 14.3467 7.47117 10.9 10.9118C7.45336 14.3524 5.20282 18.809 4.47998 23.6251H7.85498C8.54936 19.7002 10.4355 16.0843 13.2569 13.2689C16.0783 10.4535 19.6983 8.57513 23.6247 7.88916Z" fill="#F9B316"/>
<path d="M46.1109 23.625H49.4859C48.7716 18.8077 46.5289 14.3471 43.0883 10.9004C39.6477 7.45372 35.1911 5.20319 30.375 4.48035V7.85535C34.2999 8.54972 37.9158 10.4358 40.7312 13.2573C43.5466 16.0787 45.425 19.6986 46.1109 23.625Z" fill="#F9B316"/>
<path d="M37.125 27C37.125 24.9975 36.5312 23.0399 35.4186 21.3749C34.3061 19.7098 32.7248 18.4121 30.8747 17.6457C29.0246 16.8794 26.9888 16.6789 25.0247 17.0696C23.0607 17.4602 21.2566 18.4245 19.8405 19.8405C18.4245 21.2566 17.4602 23.0607 17.0696 25.0247C16.6789 26.9888 16.8794 29.0246 17.6457 30.8747C18.4121 32.7248 19.7098 34.3061 21.3749 35.4186C23.0399 36.5312 24.9975 37.125 27 37.125C29.6853 37.125 32.2607 36.0583 34.1595 34.1595C36.0583 32.2607 37.125 29.6853 37.125 27ZM25.875 33.75V32.625H23.625C23.3266 32.625 23.0405 32.5065 22.8295 32.2955C22.6185 32.0845 22.5 31.7984 22.5 31.5C22.5 31.2016 22.6185 30.9155 22.8295 30.7045C23.0405 30.4935 23.3266 30.375 23.625 30.375H28.125C28.4234 30.375 28.7095 30.2565 28.9205 30.0455C29.1315 29.8345 29.25 29.5484 29.25 29.25C29.25 28.9516 29.1315 28.6655 28.9205 28.4545C28.7095 28.2435 28.4234 28.125 28.125 28.125H25.875C24.9799 28.125 24.1215 27.7694 23.4885 27.1365C22.8556 26.5036 22.5 25.6451 22.5 24.75C22.5 23.8549 22.8556 22.9965 23.4885 22.3635C24.1215 21.7306 24.9799 21.375 25.875 21.375V20.25C25.875 19.9516 25.9935 19.6655 26.2045 19.4545C26.4155 19.2435 26.7016 19.125 27 19.125C27.2984 19.125 27.5845 19.2435 27.7955 19.4545C28.0065 19.6655 28.125 19.9516 28.125 20.25V21.375H30.375C30.6734 21.375 30.9595 21.4935 31.1705 21.7045C31.3815 21.9155 31.5 22.2016 31.5 22.5C31.5 22.7984 31.3815 23.0845 31.1705 23.2955C30.9595 23.5065 30.6734 23.625 30.375 23.625H25.875C25.5766 23.625 25.2905 23.7435 25.0795 23.9545C24.8685 24.1655 24.75 24.4516 24.75 24.75C24.75 25.0484 24.8685 25.3345 25.0795 25.5455C25.2905 25.7565 25.5766 25.875 25.875 25.875H28.125C29.0201 25.875 29.8786 26.2306 30.5115 26.8635C31.1444 27.4965 31.5 28.3549 31.5 29.25C31.5 30.1451 31.1444 31.0036 30.5115 31.6365C29.8786 32.2694 29.0201 32.625 28.125 32.625V33.75C28.125 34.0484 28.0065 34.3345 27.7955 34.5455C27.5845 34.7565 27.2984 34.875 27 34.875C26.7016 34.875 26.4155 34.7565 26.2045 34.5455C25.9935 34.3345 25.875 34.0484 25.875 33.75Z" fill="#F9B316"/>
<path d="M7.88867 30.375H4.51367C5.22802 35.1924 7.47068 39.653 10.9113 43.0996C14.3519 46.5463 18.8085 48.7968 23.6246 49.5197V46.1447C19.6997 45.4503 16.0838 43.5642 13.2684 40.7428C10.453 37.9213 8.57464 34.3014 7.88867 30.375Z" fill="#F9B316"/>
</svg>
