<svg width="61" height="61" viewBox="0 0 61 61" fill="none" xmlns="http://www.w3.org/2000/svg">
<path d="M15.898 18.3286C15.61 17.7933 15.3921 17.2231 15.2499 16.632C14.8995 15.6491 14.2539 14.7984 13.4014 14.1966C12.5489 13.5948 11.5312 13.2712 10.4876 13.2701C9.44409 13.2691 8.42574 13.5907 7.57203 14.1908C6.71831 14.7909 6.07097 15.6402 5.71865 16.6225C5.22303 18.1189 5.22303 18.1666 5.09912 18.3286C6.68791 19.4208 8.57058 20.0055 10.4986 20.0055C12.4266 20.0055 14.3092 19.4208 15.898 18.3286Z" fill="#F9B316"/>
<path d="M13.0008 8.74968V7.88234C13.0008 7.21499 12.7357 6.57497 12.2638 6.10308C11.7919 5.63119 11.1519 5.36609 10.4845 5.36609C9.81716 5.36609 9.17714 5.63119 8.70525 6.10308C8.23337 6.57497 7.96826 7.21499 7.96826 7.88234V8.74968C7.96826 9.41703 8.23337 10.0571 8.70525 10.5289C9.17714 11.0008 9.81716 11.2659 10.4845 11.2659C11.1519 11.2659 11.7919 11.0008 12.2638 10.5289C12.7357 10.0571 13.0008 9.41703 13.0008 8.74968Z" fill="#F9B316"/>
<path d="M7.45344 11.9622C6.92283 11.4355 6.52115 10.7932 6.27975 10.0855C6.03836 9.3779 5.9638 8.62405 6.06188 7.88283C6.06188 6.70991 6.52782 5.58503 7.3572 4.75565C8.18658 3.92627 9.31146 3.46033 10.4844 3.46033C11.6573 3.46033 12.7822 3.92627 13.6116 4.75565C14.4409 5.58503 14.9069 6.70991 14.9069 7.88283C14.9069 9.28393 14.9069 10.6374 13.5153 11.9622C16.1078 13.2013 16.8322 15.2505 17.4231 17.0233C18.6988 15.6687 19.5501 13.9703 19.872 12.1375C20.1938 10.3048 19.9722 8.418 19.2344 6.70976C18.4966 5.00152 17.2749 3.5466 15.7201 2.52445C14.1652 1.50231 12.3451 0.957642 10.4844 0.957642C8.62362 0.957642 6.80356 1.50231 5.24869 2.52445C3.69382 3.5466 2.47215 5.00152 1.73436 6.70976C0.99657 8.418 0.774938 10.3048 1.0968 12.1375C1.41866 13.9703 2.26994 15.6687 3.54563 17.0233C4.19376 15.0789 4.91813 13.1727 7.45344 11.9622Z" fill="#F9B316"/>
<path d="M15.2499 56.6633C14.8995 55.6803 14.2539 54.8297 13.4014 54.2279C12.5489 53.626 11.5312 53.3024 10.4876 53.3014C9.44409 53.3004 8.42574 53.6219 7.57203 54.222C6.71831 54.8221 6.07097 55.6715 5.71865 56.6538C5.1849 58.255 5.23256 58.1788 5.09912 58.3503C6.69079 59.4488 8.57895 60.0371 10.5129 60.0371C12.4468 60.0371 14.3349 59.4488 15.9266 58.3503C15.7741 58.1406 15.8122 58.255 15.2499 56.6633Z" fill="#F9B316"/>
<path d="M13.0008 48.7809V47.9136C13.0008 47.2463 12.7357 46.6062 12.2638 46.1343C11.7919 45.6625 11.1519 45.3974 10.4845 45.3974C9.81716 45.3974 9.17714 45.6625 8.70525 46.1343C8.23337 46.6062 7.96826 47.2463 7.96826 47.9136V48.7809C7.96826 49.4483 8.23337 50.0883 8.70525 50.5602C9.17714 51.0321 9.81716 51.2972 10.4845 51.2972C11.1519 51.2972 11.7919 51.0321 12.2638 50.5602C12.7357 50.0883 13.0008 49.4483 13.0008 48.7809Z" fill="#F9B316"/>
<path d="M10.4846 40.9844C8.6249 40.9854 6.80615 41.5304 5.2524 42.5523C3.69864 43.5742 2.47777 45.0282 1.7402 46.7354C1.00263 48.4426 0.780582 50.3282 1.10142 52.16C1.42225 53.9918 2.27195 55.6897 3.54583 57.0445C4.20348 55.1383 4.92786 53.232 7.45364 51.993C6.92303 51.4662 6.52134 50.8239 6.27995 50.1163C6.03856 49.4087 5.96399 48.6548 6.06208 47.9136C6.06208 46.7407 6.52802 45.6158 7.3574 44.7864C8.18678 43.957 9.31166 43.4911 10.4846 43.4911C11.6575 43.4911 12.7824 43.957 13.6118 44.7864C14.4411 45.6158 14.9071 46.7407 14.9071 47.9136C14.9071 49.3147 14.9071 50.6681 13.5155 51.993C16.089 53.2225 16.8229 55.2431 17.4233 57.0445C18.6972 55.6897 19.5469 53.9918 19.8677 52.16C20.1886 50.3282 19.9665 48.4426 19.229 46.7354C18.4914 45.0282 17.2705 43.5742 15.7168 42.5523C14.163 41.5304 12.3442 40.9854 10.4846 40.9844Z" fill="#F9B316"/>
<path d="M55.2812 56.6633C54.9421 55.6607 54.2971 54.7897 53.4371 54.1727C52.5771 53.5558 51.5454 53.224 50.487 53.224C49.4286 53.224 48.3968 53.5558 47.5368 54.1727C46.6769 54.7897 46.0319 55.6607 45.6928 56.6633C45.159 58.2645 45.2067 58.1883 45.0732 58.3599C46.6649 59.4583 48.5531 60.0466 50.487 60.0466C52.4209 60.0466 54.3091 59.4583 55.9007 58.3599C55.8054 58.1406 55.8436 58.255 55.2812 56.6633Z" fill="#F9B316"/>
<path d="M53.032 48.7809V47.9136C53.032 47.2463 52.7669 46.6062 52.295 46.1343C51.8231 45.6625 51.1831 45.3974 50.5158 45.3974C49.8484 45.3974 49.2084 45.6625 48.7365 46.1343C48.2646 46.6062 47.9995 47.2463 47.9995 47.9136V48.7809C47.9995 49.4483 48.2646 50.0883 48.7365 50.5602C49.2084 51.0321 49.8484 51.2972 50.5158 51.2972C51.1831 51.2972 51.8231 51.0321 52.295 50.5602C52.7669 50.0883 53.032 49.4483 53.032 48.7809Z" fill="#F9B316"/>
<path d="M50.5158 40.9844C48.6562 40.9854 46.8374 41.5304 45.2836 42.5523C43.7299 43.5742 42.509 45.0282 41.7715 46.7354C41.0339 48.4426 40.8118 50.3282 41.1327 52.16C41.4535 53.9918 42.3032 55.6897 43.5771 57.0445C44.2347 55.1383 44.9591 53.232 47.4849 51.993C46.9543 51.4662 46.5526 50.8239 46.3112 50.1163C46.0698 49.4087 45.9952 48.6548 46.0933 47.9136C46.0933 46.7407 46.5593 45.6158 47.3886 44.7864C48.218 43.957 49.3429 43.4911 50.5158 43.4911C51.6887 43.4911 52.8136 43.957 53.643 44.7864C54.4724 45.6158 54.9383 46.7407 54.9383 47.9136C54.9383 49.3147 54.9383 50.6681 53.5468 51.993C56.1202 53.2225 56.8541 55.2431 57.4546 57.0445C58.7284 55.6897 59.5781 53.9918 59.899 52.16C60.2198 50.3282 59.9978 48.4426 59.2602 46.7354C58.5226 45.0282 57.3018 43.5742 55.748 42.5523C54.1943 41.5304 52.3755 40.9854 50.5158 40.9844Z" fill="#F9B316"/>
<path d="M45.7499 16.6225C45.2162 18.2237 45.2638 18.1475 45.1304 18.3191C46.722 19.4175 48.6102 20.0058 50.5441 20.0058C52.478 20.0058 54.3662 19.4175 55.9579 18.3191C55.834 18.1475 55.8721 18.2237 55.3383 16.632C55.0002 15.6291 54.3561 14.7574 53.4967 14.1396C52.6374 13.5218 51.6059 13.189 50.5475 13.1879C49.4891 13.1869 48.457 13.5177 47.5964 14.1338C46.7358 14.7499 46.09 15.6202 45.7499 16.6225Z" fill="#F9B316"/>
<path d="M53.032 8.74968V7.88234C53.032 7.21499 52.7669 6.57497 52.295 6.10308C51.8231 5.63119 51.1831 5.36609 50.5158 5.36609C49.8484 5.36609 49.2084 5.63119 48.7365 6.10308C48.2646 6.57497 47.9995 7.21499 47.9995 7.88234V8.74968C47.9995 9.41703 48.2646 10.0571 48.7365 10.5289C49.2084 11.0008 49.8484 11.2659 50.5158 11.2659C51.1831 11.2659 51.8231 11.0008 52.295 10.5289C52.7669 10.0571 53.032 9.41703 53.032 8.74968Z" fill="#F9B316"/>
<path d="M47.4847 11.9617C46.9541 11.435 46.5524 10.7927 46.311 10.0851C46.0696 9.37743 45.995 8.62357 46.0931 7.88235C46.0931 6.70943 46.5591 5.58455 47.3885 4.75517C48.2178 3.92579 49.3427 3.45985 50.5156 3.45985C51.6886 3.45985 52.8134 3.92579 53.6428 4.75517C54.4722 5.58455 54.9381 6.70943 54.9381 7.88235C54.9381 9.28345 54.9381 10.6369 53.5466 11.9617C56.12 13.1913 56.8539 15.2119 57.4544 17.0133C58.7301 15.6587 59.5813 13.9602 59.9032 12.1275C60.2251 10.2948 60.0034 8.40799 59.2657 6.69975C58.5279 4.99151 57.3062 3.53659 55.7513 2.51444C54.1964 1.4923 52.3764 0.947632 50.5156 0.947632C48.6549 0.947632 46.8348 1.4923 45.2799 2.51444C43.7251 3.53659 42.5034 4.99151 41.7656 6.69975C41.0278 8.40799 40.8062 10.2948 41.128 12.1275C41.4499 13.9602 42.3012 15.6587 43.5769 17.0133C44.2345 15.0689 44.9589 13.1722 47.4847 11.9617Z" fill="#F9B316"/>
<path d="M56.2344 40.6127C58.7896 34.113 58.7896 26.887 56.2344 20.3874C55.6862 20.7139 55.1087 20.9883 54.5093 21.207C56.8246 27.186 56.8246 33.814 54.5093 39.793C55.1087 40.0118 55.6862 40.2862 56.2344 40.6127Z" fill="#F9B316"/>
<path d="M4.76547 20.3874C2.21034 26.887 2.21034 34.113 4.76547 40.6127C5.31367 40.2862 5.89124 40.0118 6.49063 39.793C4.17928 33.81 4.17928 27.1805 6.49063 21.1975C5.8914 20.9823 5.31379 20.711 4.76547 20.3874Z" fill="#F9B316"/>
<path d="M39.7928 6.50031C40.011 5.89765 40.2855 5.31686 40.6125 4.76562C34.1129 2.21049 26.8869 2.21049 20.3872 4.76562C20.7137 5.31382 20.9881 5.8914 21.2069 6.49078C27.1871 4.17853 33.815 4.18193 39.7928 6.50031Z" fill="#F9B316"/>
<path d="M21.2069 54.4997C20.9887 55.1024 20.7142 55.6831 20.3872 56.2344C26.8869 58.7895 34.1129 58.7895 40.6125 56.2344C40.286 55.6862 40.0116 55.1086 39.7928 54.5092C33.8127 56.8215 27.1847 56.8181 21.2069 54.4997Z" fill="#F9B316"/>
<path d="M41.4375 30.5001C41.4375 36.5407 36.5406 41.4376 30.5 41.4376C24.4594 41.4376 19.5625 36.5407 19.5625 30.5001C19.5625 24.4595 24.4594 19.5626 30.5 19.5626C36.5406 19.5626 41.4375 24.4595 41.4375 30.5001Z" stroke="#F9B316"/>
<path d="M38.0781 30.5001C38.0781 34.6854 34.6853 38.0782 30.5 38.0782C26.3147 38.0782 22.9219 34.6854 22.9219 30.5001C22.9219 26.3148 26.3147 22.922 30.5 22.922C34.6853 22.922 38.0781 26.3148 38.0781 30.5001Z" stroke="#F9B316" stroke-width="2"/>
<path d="M34.7656 30.5001C34.7656 32.8559 32.8558 34.7657 30.5 34.7657C28.1442 34.7657 26.2344 32.8559 26.2344 30.5001C26.2344 28.1443 28.1442 26.2345 30.5 26.2345C32.8558 26.2345 34.7656 28.1443 34.7656 30.5001Z" fill="#F9B316" stroke="#F9B316"/>
</svg>
