<svg width="609" height="384" viewBox="0 0 609 384" fill="none" xmlns="http://www.w3.org/2000/svg">
<path d="M292.877 274.127C289.85 270.439 285.753 268.369 281.481 268.369C277.21 268.369 273.113 270.439 270.086 274.127V274.127C267.058 277.816 262.96 279.887 258.688 279.887C254.416 279.887 250.317 277.816 247.29 274.127L245.618 272.091C242.591 268.404 238.494 266.333 234.222 266.333C229.951 266.333 225.854 268.404 222.827 272.091L220.339 275.12C217.312 278.808 213.215 280.878 208.943 280.878C204.672 280.878 200.575 278.808 197.548 275.12L195.496 272.62C192.469 268.931 188.371 266.86 184.098 266.86C179.826 266.86 175.728 268.931 172.7 272.62" stroke="#55A1D3" stroke-width="6.01045" stroke-linecap="round" stroke-linejoin="round"/>
<path d="M195.5 272.694C192.472 269.005 188.374 266.934 184.102 266.934C179.83 266.934 175.731 269.005 172.704 272.694L170.386 275.521C167.359 279.21 163.261 281.281 158.988 281.281C154.716 281.281 150.618 279.21 147.591 275.521L146.177 273.801C143.15 270.114 139.053 268.043 134.781 268.043C130.51 268.043 126.413 270.114 123.386 273.801C120.358 277.49 116.26 279.561 111.988 279.561C107.716 279.561 103.617 277.49 100.59 273.801L98.9223 271.76C95.895 268.071 91.7967 266 87.5245 266C83.2522 266 79.1539 268.071 76.1267 271.76L73.6391 274.794C70.612 278.482 66.5146 280.552 62.2433 280.552C57.9721 280.552 53.8746 278.482 50.8475 274.794" stroke="#55A1D3" stroke-width="6.01045" stroke-linecap="round" stroke-linejoin="round"/>
<path d="M292.877 313.692C289.85 310.004 285.753 307.934 281.481 307.934C277.21 307.934 273.113 310.004 270.086 313.692V313.692C267.058 317.381 262.96 319.452 258.688 319.452C254.416 319.452 250.317 317.381 247.29 313.692L245.598 311.636C242.571 307.948 238.473 305.878 234.202 305.878C229.931 305.878 225.834 307.948 222.806 311.636L220.319 314.665C217.292 318.353 213.194 320.423 208.923 320.423C204.652 320.423 200.554 318.353 197.527 314.665L195.476 312.165C192.449 308.476 188.35 306.404 184.078 306.404C179.806 306.404 175.708 308.476 172.68 312.165" stroke="#55A1D3" stroke-width="6.01045" stroke-linecap="round" stroke-linejoin="round"/>
<path d="M195.499 312.975C192.472 309.286 188.374 307.215 184.101 307.215C179.829 307.215 175.731 309.286 172.704 312.975L170.386 315.802C167.358 319.491 163.26 321.562 158.988 321.562C154.716 321.562 150.617 319.491 147.59 315.802L146.177 314.082C143.15 310.395 139.052 308.324 134.781 308.324C130.51 308.324 126.412 310.395 123.385 314.082V314.082C120.358 317.771 116.26 319.842 111.987 319.842C107.715 319.842 103.617 317.771 100.59 314.082L98.9218 312.041C95.8945 308.352 91.7962 306.281 87.524 306.281C83.2517 306.281 79.1534 308.352 76.1262 312.041L73.6386 315.075C70.6115 318.763 66.5141 320.833 62.2429 320.833C57.9716 320.833 53.8742 318.763 50.8471 315.075L48.7957 312.57C45.7684 308.881 41.6701 306.81 37.3979 306.81C33.1256 306.81 29.0273 308.881 26.0001 312.57" stroke="#55A1D3" stroke-width="6.01045" stroke-linecap="round" stroke-linejoin="round"/>
<mask id="mask0" mask-type="alpha" maskUnits="userSpaceOnUse" x="93" y="0" width="444" height="291">
<rect width="443.728" height="290.247" transform="matrix(-1 0 0 1 536.728 0)" fill="#C4C4C4"/>
</mask>
<g mask="url(#mask0)">
<path d="M325.676 423.558C224.395 423.558 142.29 347.657 142.29 254.028C142.29 160.399 224.395 84.4983 325.676 84.4983C426.957 84.4983 509.062 160.399 509.062 254.028C509.062 347.657 426.957 423.558 325.676 423.558Z" fill="#F4F1ED" stroke="#55A1D3" stroke-width="10" stroke-linecap="round" stroke-linejoin="round"/>
<path d="M312.015 392.854C229.08 392.854 161.847 325.53 161.847 242.482C161.847 159.434 229.08 92.1099 312.015 92.1099C394.951 92.1099 462.183 159.434 462.183 242.482C462.183 325.53 394.951 392.854 312.015 392.854Z" fill="#EAE5DF"/>
<path d="M252.428 225.728C252.428 225.728 216.603 288.519 232.925 318.544C249.247 348.57 278.003 359.724 312.012 355.852C398.167 346.046 504.236 275.848 501.562 253.201C497.954 222.642 339.33 257.668 339.33 257.668L325.207 226.034L252.428 225.728Z" fill="#C5DCDD" stroke="black" stroke-width="3.20597" stroke-linecap="round" stroke-linejoin="round"/>
<path d="M322.41 107.567C305.218 137.294 327.844 206.157 338.255 216.443C357.536 235.516 441.582 232.815 441.582 232.815L444.995 224.629C444.995 224.629 398.676 197.896 361.712 195.775C361.712 195.775 351.849 142.116 348.578 126.726C344.455 107.332 334.277 87.0485 322.41 107.567Z" fill="#C48270" stroke="#0F0F0F" stroke-width="3.20597" stroke-linecap="round" stroke-linejoin="round"/>
<path d="M435.521 225.34C437.374 220.429 453.241 223.504 459.546 226.604C464.909 229.241 471.396 236.32 472.455 237.819C473.514 239.317 475.871 246.884 475.871 246.884C475.871 246.884 473.588 249.44 470.511 244.983C467.435 240.527 459.455 235.423 457.475 236.541C453.023 239.057 463.81 240.047 464.99 241.855C466.17 243.663 465.609 244.738 465.609 244.738C465.609 244.738 455.471 244.25 453.84 244.026C452.209 243.802 445.746 240.705 442.586 237.901C439.425 235.096 434.364 228.401 435.521 225.34Z" fill="#E38E32"/>
<path d="M254.042 89.5825C248.837 91.2161 232.522 97.644 232.522 97.644C232.522 97.644 233.904 139.379 238.531 149.252C257.912 190.617 251.88 228.729 251.88 228.729C251.88 228.729 297.779 236.815 325.856 229.017C325.856 229.017 322.184 197.547 328.183 193.781C334.182 190.016 344.007 181.555 341.297 164.521C338.587 147.487 339.205 102.816 335.917 99.929C332.628 97.0425 318.095 89.5327 314.343 89.5469C310.59 89.5611 254.042 89.5825 254.042 89.5825Z" fill="#F4F1ED" stroke="#070707" stroke-width="3.20597" stroke-linecap="round" stroke-linejoin="round"/>
<path d="M397.311 173.853H500.087C501.22 173.853 502.336 174.143 503.34 174.697C504.344 175.252 505.207 176.055 505.855 177.039C506.502 178.022 506.916 179.157 507.061 180.346C507.205 181.535 507.076 182.744 506.684 183.869L480.793 258.394H360.441L387.233 181.302C387.994 179.12 389.367 177.236 391.168 175.905C392.97 174.573 395.114 173.857 397.311 173.853Z" fill="#F9A09B" stroke="black" stroke-width="3.20597" stroke-linecap="round" stroke-linejoin="round"/>
<path d="M399.332 177.633H499.536C500.641 177.633 501.729 177.916 502.708 178.457C503.687 178.997 504.528 179.781 505.16 180.739C505.792 181.698 506.196 182.804 506.337 183.964C506.479 185.123 506.353 186.302 505.972 187.399L480.713 260.07H363.36L389.487 184.897C390.229 182.765 391.57 180.926 393.331 179.627C395.092 178.328 397.186 177.632 399.332 177.633Z" fill="#F9A09B" stroke="black" stroke-width="3.20597" stroke-linecap="round" stroke-linejoin="round"/>
<path d="M480.729 258.636H310.533C308.607 258.636 306.76 259.446 305.397 260.888C304.035 262.33 303.27 264.285 303.27 266.324V268.018H473.465C475.392 268.018 477.239 267.208 478.601 265.767C479.963 264.325 480.729 262.369 480.729 260.33V258.636Z" fill="#22AD22" stroke="black" stroke-width="3.20597" stroke-linecap="round" stroke-linejoin="round"/>
<path d="M397.311 173.853H500.087C501.22 173.853 502.336 174.143 503.34 174.697C504.344 175.252 505.207 176.055 505.855 177.039C506.502 178.022 506.916 179.157 507.061 180.346C507.205 181.535 507.076 182.744 506.684 183.869L480.793 258.394H360.441L387.233 181.302C387.994 179.12 389.367 177.236 391.168 175.905C392.97 174.573 395.114 173.857 397.311 173.853Z" fill="#22AD22" stroke="black" stroke-width="3.20597" stroke-linecap="round" stroke-linejoin="round"/>
<path d="M432.776 225.363C430.341 222.5 431.07 217.601 434.406 214.422C437.742 211.243 442.42 210.987 444.856 213.85C447.291 216.713 446.562 221.612 443.226 224.791C439.89 227.97 435.212 228.226 432.776 225.363Z" fill="#22AD22" stroke="black" stroke-width="3.20597" stroke-linecap="round" stroke-linejoin="round"/>
<path d="M344.166 261.989H351.358V264.723H344.166V261.989Z" fill="#F9A09B" stroke="black" stroke-width="3.20597" stroke-linecap="round" stroke-linejoin="round"/>
<path d="M330.425 261.989H337.617V264.723H330.425V261.989Z" fill="#F9A09B" stroke="black" stroke-width="3.20597" stroke-linecap="round" stroke-linejoin="round"/>
<path d="M305.271 8.11607C305.271 8.11607 330.056 -4.19157 345.416 21.6089C360.813 47.47 339.7 58.9804 350.729 72.1849C362.663 86.4786 377.77 94.8498 365.524 123.174C353.042 152.057 384.872 141.408 377.989 173.561H324.02C324.02 173.561 300.802 164.959 307.769 143.764C314.736 122.569 329.666 119.636 315.674 100.936C305.166 86.8951 256.689 89.7566 252.334 90.9703C247.98 92.184 229.425 98.9037 229.425 98.9037C229.425 98.9037 222.048 75.5377 232.599 62.6677C245.952 46.388 268.219 58.3967 272.277 39.2874C275.021 26.4032 280.347 11.4404 289.198 8.6108C298.707 5.57126 305.271 8.11607 305.271 8.11607Z" fill="#1C0E0C"/>
<path d="M307.476 11.3481C307.476 11.3481 312.688 2.78111 339.151 22.3104C355.507 34.3831 344.074 58.97 355.103 72.1746C367.037 86.4683 382.141 94.8395 369.898 123.163C357.417 152.046 389.246 141.397 382.363 173.551" stroke="#070707" stroke-width="3.20597" stroke-linecap="round" stroke-linejoin="round"/>
<path d="M286.368 53.0083C286.368 53.0083 287.195 72.4664 280.487 82.4499C275.924 89.2301 280.023 88.6606 264.111 90.5968C264.111 90.5968 262.45 115.579 299.29 115.579C326.628 115.579 315.683 100.936 315.683 100.936C315.683 100.936 304.27 83.4358 309.19 53.0083H286.368Z" fill="#C48270" stroke="#0F0F0F" stroke-width="3.20597" stroke-linecap="round" stroke-linejoin="round"/>
<path d="M286.006 51.4951C286.006 51.4951 285.3 90.5963 314.84 90.5963C315.437 90.594 316.027 90.4493 316.565 90.1728C315.011 89.0267 305.314 80.5844 310.099 50.9897H286.006C286.006 50.9897 286.006 51.1606 286.006 51.4809V51.4951Z" fill="#1C0E0C"/>
<path d="M285.201 50.855C285.201 50.855 289.431 84.2828 309.489 84.443C322.68 84.5462 330.299 64.9671 333.39 54.7024C336.917 42.982 333.178 19.5555 314.361 19.8509C298.019 20.1107 289.478 43.6975 289.478 43.6975L285.201 50.855Z" fill="#C48270" stroke="#0F0F0F" stroke-width="3.20597" stroke-linecap="round" stroke-linejoin="round"/>
<path d="M289.058 49.1609C289.058 49.1609 289.858 46.2673 289.119 43.6548C288.648 41.9998 287.555 40.4515 285.248 39.8394" stroke="#070707" stroke-width="3.20597" stroke-linecap="round" stroke-linejoin="round"/>
<path d="M285.246 45.5549L289.116 43.6543" stroke="#070707" stroke-width="3.20597" stroke-linecap="round" stroke-linejoin="round"/>
<path d="M255.288 100.684C255.288 100.684 266.848 132.403 248.357 149.445C242.396 154.936 233.596 149.918 233.596 149.918" fill="#C48270"/>
<path d="M255.288 100.684C255.288 100.684 266.848 132.403 248.357 149.445C242.396 154.936 233.596 149.918 233.596 149.918" stroke="#0F0F0F" stroke-width="3.20597" stroke-linecap="round" stroke-linejoin="round"/>
<path d="M246.611 132.859C240.02 154.947 231.281 186.172 231.281 186.172C265.949 188.165 318.216 210.421 324.582 213.179C335.147 215.67 350.107 224.725 352.982 226.544C355.672 228.163 359.902 232.651 361.18 234.452C362.525 236.331 365.655 243.097 365.655 243.097C364.989 243.446 364.231 243.548 363.503 243.387C362.775 243.225 362.119 242.81 361.64 242.208C360.406 240.784 358.335 237.353 356.674 235.684C358.18 239.688 359.589 243.824 359.589 243.824C359.589 243.824 355.853 244.792 351.065 243.154C348.772 242.371 346.237 237.716 343.553 234.651C340.87 231.587 335.016 233.036 329.155 231.986C323.294 230.936 319.225 221.838 319.225 221.838L319.306 221.689C304.09 221.956 224.069 222.508 206.637 205.267C196.213 194.97 209.724 127.911 226.917 98.1887C234.479 85.1194 245.747 86.8741 251.029 95.1955C252.795 97.9681 254.903 99.5875 254.99 103.513" fill="#C48270"/>
<path d="M246.611 132.859C240.02 154.947 231.281 186.172 231.281 186.172C265.949 188.165 318.216 210.421 324.582 213.179C335.147 215.67 350.107 224.725 352.982 226.544C355.672 228.163 359.902 232.651 361.18 234.452C362.525 236.331 365.655 243.097 365.655 243.097C364.989 243.446 364.231 243.548 363.503 243.387C362.775 243.225 362.119 242.81 361.64 242.208C360.406 240.784 358.335 237.353 356.674 235.684C358.18 239.688 359.589 243.824 359.589 243.824C359.589 243.824 355.853 244.792 351.065 243.154C348.772 242.371 346.237 237.716 343.553 234.651C340.87 231.587 335.016 233.036 329.155 231.986C323.294 230.936 319.225 221.838 319.225 221.838L319.306 221.689C304.09 221.956 224.069 222.508 206.637 205.267C196.213 194.97 209.724 127.911 226.917 98.1887C234.479 85.1194 245.747 86.8741 251.029 95.1955C252.795 97.9681 254.903 99.5875 254.99 103.513" stroke="#0F0F0F" stroke-width="3.20597" stroke-linecap="round" stroke-linejoin="round"/>
<path d="M356.599 244.09C356.665 244.101 356.733 244.092 356.794 244.065C356.838 244.048 356.878 244.021 356.912 243.987C356.946 243.953 356.973 243.911 356.99 243.865C357.008 243.819 357.017 243.77 357.015 243.72C357.014 243.671 357.003 243.622 356.983 243.577C356.532 242.445 352.531 232.49 350.769 231.142C347.712 228.8 343.731 225.728 343.731 225.728L343.314 226.333C343.314 226.333 347.298 229.408 350.352 231.747C351.697 232.786 355.13 240.847 356.33 243.848C356.352 243.909 356.388 243.964 356.435 244.006C356.482 244.049 356.539 244.077 356.599 244.09V244.09Z" stroke="#070707" stroke-width="3.20597" stroke-linecap="round" stroke-linejoin="round"/>
<path d="M352.793 243.407C352.856 243.417 352.921 243.409 352.981 243.384C353.04 243.359 353.092 243.317 353.131 243.263C353.17 243.209 353.194 243.145 353.202 243.078C353.209 243.01 353.199 242.942 353.173 242.88C353.012 242.524 349.185 233.722 347.396 232.352C344.34 230.014 340.358 226.942 340.358 226.942L339.941 227.547C339.941 227.547 343.926 230.619 346.979 232.961C348.324 234 351.448 240.698 352.531 243.193C352.555 243.249 352.591 243.297 352.637 243.334C352.683 243.372 352.736 243.396 352.793 243.407V243.407Z" stroke="#070707" stroke-width="3.20597" stroke-linecap="round" stroke-linejoin="round"/>
<path d="M290.735 58.6853C290.735 58.6853 290.805 101.705 268.791 104.812C246.776 107.919 229.345 92.4549 229.345 92.4549" fill="#1C0E0C"/>
<path d="M317.962 51.428L319.152 61.8279L314.996 64.3941" stroke="#070707" stroke-width="3.20597" stroke-linecap="round" stroke-linejoin="round"/>
<path d="M309.289 51.6678C308.41 51.3411 308.027 50.0793 308.435 48.8496C308.843 47.6198 309.886 46.8879 310.766 47.2147C311.646 47.5415 312.028 48.8033 311.62 50.033C311.213 51.2627 310.169 51.9946 309.289 51.6678Z" fill="#1C0E0C"/>
<path d="M324.166 55.6954C323.287 55.3686 322.904 54.1068 323.312 52.8771C323.72 51.6474 324.763 50.9155 325.643 51.2423C326.523 51.5691 326.905 52.8309 326.498 54.0605C326.09 55.2902 325.046 56.0222 324.166 55.6954Z" fill="#1C0E0C"/>
<path d="M315.333 42.2807C315.333 42.2807 312.427 38.6112 306.166 41.8074" stroke="#070707" stroke-width="3.20597" stroke-linecap="round" stroke-linejoin="round"/>
<path d="M330.688 47.4132C330.688 47.4132 329.05 42.9428 323.011 44.8434" stroke="#070707" stroke-width="3.20597" stroke-linecap="round" stroke-linejoin="round"/>
<path d="M321.596 18.1775C321.596 18.1775 311.869 13.9064 308.624 24.0964C305.379 34.2863 300.093 42.7963 289.43 36.8774C278.768 30.9585 283.132 23.2671 283.132 23.2671" fill="#1C0E0C"/>
<path d="M288.037 51.0041C284.202 51.0041 281.093 47.7135 281.093 43.6544C281.093 39.5953 284.202 36.3047 288.037 36.3047C291.871 36.3047 294.98 39.5953 294.98 43.6544C294.98 47.7135 291.871 51.0041 288.037 51.0041Z" fill="#C48270"/>
<path d="M290.674 48.1389C290.674 48.1389 291.477 45.2453 290.734 42.6328C290.267 40.9778 289.174 39.4296 286.867 38.8174" stroke="#070707" stroke-width="3.20597" stroke-linecap="round" stroke-linejoin="round"/>
<path d="M286.868 44.5339L290.735 42.6333" stroke="#070707" stroke-width="3.20597" stroke-linecap="round" stroke-linejoin="round"/>
<path d="M291.094 35.8421C293.074 16.683 311.087 5.71718 311.269 5.646L302.594 6.27242C301.545 6.64969 291.554 8.11608 282.233 33.5251L291.094 35.8421Z" fill="#EFAF00" stroke="black" stroke-width="3.20597" stroke-linecap="round" stroke-linejoin="round"/>
<path d="M284.179 61.7873C279.612 61.1423 276.717 54.2145 277.713 46.3137C278.709 38.4129 283.219 32.5309 287.785 33.1759C292.352 33.8209 295.247 40.7486 294.251 48.6495C293.255 56.5503 288.746 62.4323 284.179 61.7873Z" fill="#EFAF00" stroke="black" stroke-width="3.20597" stroke-linecap="round" stroke-linejoin="round"/>
<path d="M281.295 61.3835C276.729 60.7385 273.834 53.8108 274.83 45.9099C275.826 38.0091 280.335 32.1271 284.902 32.7721C289.469 33.4171 292.364 40.3448 291.368 48.2457C290.372 56.1465 285.862 62.0285 281.295 61.3835Z" fill="#EFAF00" stroke="black" stroke-width="3.20597" stroke-linecap="round" stroke-linejoin="round"/>
<path d="M314.995 69.6651C314.995 69.6651 308.512 70.8468 305.607 64.063" stroke="#070707" stroke-width="3.20597" stroke-linecap="round" stroke-linejoin="round"/>
</g>
<path d="M146.041 290.799L604 290.799" stroke="#55A1D3" stroke-width="10" stroke-linecap="round"/>
</svg>
