<svg xmlns="http://www.w3.org/2000/svg" width="15.768" height="15.768" viewBox="0 0 15.768 15.768">
  <defs>
    <style>
      .cls-1 {
        fill: #13467d;
      }
    </style>
  </defs>
  <g id="Time_Management" data-name="Time Management" transform="translate(-12 -12)">
    <path id="Path_1066" data-name="Path 1066" class="cls-1" d="M19.884,12a7.884,7.884,0,1,0,7.884,7.884A7.884,7.884,0,0,0,19.884,12Zm0,14.979a7.1,7.1,0,1,1,7.1-7.1,7.1,7.1,0,0,1-7.1,7.1Z"/>
    <path id="Path_1067" data-name="Path 1067" class="cls-1" d="M31.788,16.183v-.788a.394.394,0,0,0-.788,0v.788a.394.394,0,0,0,.788,0Z" transform="translate(-11.51 -1.817)"/>
    <path id="Path_1068" data-name="Path 1068" class="cls-1" d="M31,45.394v.788a.394.394,0,0,0,.788,0v-.788a.394.394,0,1,0-.788,0Z" transform="translate(-11.51 -19.992)"/>
    <path id="Path_1069" data-name="Path 1069" class="cls-1" d="M45.394,31.788h.788a.394.394,0,0,0,0-.788h-.788a.394.394,0,1,0,0,.788Z" transform="translate(-19.992 -11.51)"/>
    <path id="Path_1070" data-name="Path 1070" class="cls-1" d="M16.183,31h-.788a.394.394,0,1,0,0,.788h.788a.394.394,0,0,0,0-.788Z" transform="translate(-1.817 -11.51)"/>
    <path id="Path_1071" data-name="Path 1071" class="cls-1" d="M23.219,17.211a.394.394,0,1,0,.524.152A.394.394,0,0,0,23.219,17.211Z" transform="translate(-6.686 -3.13)"/>
    <path id="Path_1072" data-name="Path 1072" class="cls-1" d="M39.219,44.931a.394.394,0,1,0,.524.152A.394.394,0,0,0,39.219,44.931Z" transform="translate(-16.379 -19.922)"/>
    <path id="Path_1073" data-name="Path 1073" class="cls-1" d="M39.219,17.883a.394.394,0,1,0-.13-.53A.394.394,0,0,0,39.219,17.883Z" transform="translate(-16.379 -3.123)"/>
    <path id="Path_1074" data-name="Path 1074" class="cls-1" d="M23.613,44.931a.394.394,0,1,0,.13.53A.394.394,0,0,0,23.613,44.931Z" transform="translate(-6.686 -19.922)"/>
    <path id="Path_1075" data-name="Path 1075" class="cls-1" d="M45.449,23.735a.4.4,0,1,0-.54-.146A.4.4,0,0,0,45.449,23.735Z" transform="translate(-19.905 -6.662)"/>
    <path id="Path_1076" data-name="Path 1076" class="cls-1" d="M17.335,39.049a.4.4,0,1,0,.54.146A.4.4,0,0,0,17.335,39.049Z" transform="translate(-3.112 -16.355)"/>
    <path id="Path_1077" data-name="Path 1077" class="cls-1" d="M45.055,39.735a.4.4,0,1,0-.146-.54A.4.4,0,0,0,45.055,39.735Z" transform="translate(-19.905 -16.355)"/>
    <path id="Path_1078" data-name="Path 1078" class="cls-1" d="M17.729,23.049a.4.4,0,1,0,.146.54A.4.4,0,0,0,17.729,23.049Z" transform="translate(-3.112 -6.662)"/>
    <path id="Path_1079" data-name="Path 1079" class="cls-1" d="M32.73,24.942c-3.359,0-2.129.083-2.759-.284V21.394a.394.394,0,1,0-.788,0c0,4.336.1,2.893-.284,3.548h-.5a.394.394,0,1,0,0,.788h.5a.753.753,0,0,0,.284.284v.5a.394.394,0,0,0,.788,0v-.5c.643-.374-.611-.284,2.759-.284a.394.394,0,1,0,0-.788Z" transform="translate(-9.693 -5.452)"/>
  </g>
</svg>
