<svg width="24" height="24" viewBox="0 0 24 24" fill="none" xmlns="http://www.w3.org/2000/svg">
<path d="M19.7829 14.1629L18.2577 13.2702C18.4116 12.4282 18.4116 11.5645 18.2577 10.7226L19.7829 9.82985C19.9583 9.72823 20.0371 9.51775 19.9798 9.32178C19.5824 8.02985 18.9057 6.86131 18.0214 5.88873C17.8853 5.73994 17.6633 5.70365 17.4915 5.80527L15.9663 6.698C15.3254 6.13914 14.5879 5.70728 13.7894 5.42422V3.64237C13.7894 3.43915 13.6498 3.26132 13.4529 3.21778C12.1389 2.9202 10.7927 2.93471 9.54321 3.21778C9.3463 3.26132 9.20667 3.43915 9.20667 3.64237V5.42785C8.41184 5.71454 7.6743 6.14639 7.02984 6.70163L5.50822 5.80889C5.33278 5.70728 5.11438 5.73994 4.97833 5.89236C4.094 6.86131 3.41732 8.02985 3.01991 9.32541C2.95905 9.52138 3.04139 9.73186 3.21683 9.83348L4.74203 10.7262C4.58808 11.5681 4.58808 12.4319 4.74203 13.2738L3.21683 14.1665C3.04139 14.2681 2.96263 14.4786 3.01991 14.6746C3.41732 15.9665 4.094 17.1351 4.97833 18.1076C5.11438 18.2564 5.33636 18.2927 5.50822 18.1911L7.03342 17.2984C7.6743 17.8572 8.41184 18.2891 9.21025 18.5722V20.3576C9.21025 20.5609 9.34988 20.7387 9.54679 20.7822C10.8608 21.0798 12.207 21.0653 13.4565 20.7822C13.6534 20.7387 13.793 20.5609 13.793 20.3576V18.5722C14.5879 18.2855 15.3254 17.8536 15.9698 17.2984L17.4951 18.1911C17.6705 18.2927 17.8889 18.2601 18.0249 18.1076C18.9093 17.1387 19.5859 15.9701 19.9834 14.6746C20.0371 14.475 19.9583 14.2645 19.7829 14.1629ZM11.4981 14.8996C9.91914 14.8996 8.63382 13.5968 8.63382 11.9964C8.63382 10.396 9.91914 9.09316 11.4981 9.09316C13.077 9.09316 14.3623 10.396 14.3623 11.9964C14.3623 13.5968 13.077 14.8996 11.4981 14.8996Z" fill="#FFFFFF"/>
</svg>
