<svg xmlns="http://www.w3.org/2000/svg" width="42.146" height="42.146" viewBox="0 0 42.146 42.146">
  <defs>
    <style>
      .cls-1 {
        fill: #fff;
      }
    </style>
  </defs>
  <path id="e61e" class="cls-1" d="M43.071,4.877H8.827A3.952,3.952,0,0,0,4.876,8.828V43.072a3.952,3.952,0,0,0,3.951,3.951H43.071a3.951,3.951,0,0,0,3.951-3.951V8.828a3.951,3.951,0,0,0-3.951-3.951ZM8.827,7.511H43.071a1.318,1.318,0,0,1,1.317,1.317v27H39.966L35.3,26.084a1.316,1.316,0,0,0-2.217-.252l-3.01,3.776-7.123-11.6a1.337,1.337,0,0,0-1.185-.626,1.316,1.316,0,0,0-1.12.736L11.969,35.828H7.51v-27A1.319,1.319,0,0,1,8.827,7.511Zm6.079,28.311,7.052-14.394,6.853,11.157a1.317,1.317,0,0,0,2.152.132l2.87-3.6,3.212,6.705H14.906Zm28.165,8.567H8.827A1.319,1.319,0,0,1,7.51,43.072v-4.61H44.388v4.61A1.318,1.318,0,0,1,43.071,44.389ZM35.171,22A5.268,5.268,0,1,0,29.9,16.731,5.269,5.269,0,0,0,35.171,22Zm0-7.9a2.634,2.634,0,1,1-2.634,2.634A2.637,2.637,0,0,1,35.171,14.1Z" transform="translate(-4.876 -4.877)"/>
</svg>
