<?xml version="1.0" standalone="no"?>
<!DOCTYPE svg PUBLIC "-//W3C//DTD SVG 20010904//EN"
 "http://www.w3.org/TR/2001/REC-SVG-20010904/DTD/svg10.dtd">
<svg version="1.0" xmlns="http://www.w3.org/2000/svg"
 width="700.000000pt" height="700.000000pt" viewBox="0 0 700.000000 700.000000"
 preserveAspectRatio="xMidYMid meet">
<metadata>
Created by potrace 1.14, written by Peter Selinger 2001-2017
</metadata>
<g transform="translate(0.000000,700.000000) scale(0.100000,-0.100000)"
fill="#000000" stroke="none">
<path d="M4190 6988 c-112 -59 -63 -232 62 -215 134 18 132 203 -2 223 -20 2
-46 -1 -60 -8z"/>
<path d="M2738 6879 c-192 -30 -343 -156 -407 -340 -24 -72 -27 -215 -5 -289
64 -218 256 -361 484 -361 245 0 435 157 486 403 12 60 5 176 -15 239 -73 232
-310 384 -543 348z"/>
<path d="M4721 6877 c-87 -27 -140 -141 -103 -222 32 -68 89 -107 157 -107
105 0 179 91 162 198 -15 93 -124 158 -216 131z"/>
<path d="M1509 6507 c-145 -49 -244 -157 -279 -305 -39 -166 57 -366 214 -448
93 -47 220 -56 316 -21 177 64 288 228 276 409 -17 265 -281 447 -527 365z"/>
<path d="M3930 6520 c-98 -17 -211 -97 -268 -188 -100 -159 -76 -367 58 -500
85 -84 181 -122 302 -119 126 4 227 56 308 158 202 256 22 642 -305 653 -33 1
-76 0 -95 -4z"/>
<path d="M5399 6497 c-126 -47 -191 -136 -194 -266 -3 -118 49 -206 159 -264
61 -32 183 -31 250 3 125 64 186 217 140 353 -20 60 -79 126 -139 156 -59 29
-163 38 -216 18z"/>
<path d="M6020 5766 c-140 -39 -240 -132 -287 -265 -89 -254 92 -523 361 -537
85 -4 144 9 214 48 133 73 208 191 217 341 15 266 -251 484 -505 413z"/>
<path d="M679 5754 c-59 -18 -131 -81 -160 -141 -32 -68 -33 -190 -2 -249 54
-101 135 -153 245 -159 161 -8 287 106 294 267 4 93 -18 149 -82 215 -77 78
-183 102 -295 67z"/>
<path d="M4774 5760 c-82 -19 -165 -102 -191 -189 -29 -102 0 -221 71 -290
104 -99 275 -104 388 -11 123 101 124 322 2 429 -69 60 -174 84 -270 61z"/>
<path d="M2710 5629 c-32 -20 -60 -70 -55 -98 2 -9 4 -23 4 -32 2 -29 47 -70
87 -79 87 -20 163 71 129 154 -27 64 -107 90 -165 55z"/>
<path d="M2175 5523 c-34 -9 -81 -50 -99 -86 -31 -67 -15 -154 38 -201 47 -42
107 -52 180 -30 55 17 98 84 98 154 0 60 -17 95 -64 133 -37 30 -105 43 -153
30z"/>
<path d="M1417 5175 c-122 -45 -195 -159 -185 -288 9 -107 63 -189 156 -234
108 -53 244 -31 328 54 114 114 106 311 -17 416 -73 63 -192 85 -282 52z"/>
<path d="M230 4939 c-114 -48 -139 -213 -44 -288 111 -88 274 -9 274 133 0 91
-62 157 -153 163 -29 1 -63 -2 -77 -8z"/>
<path d="M5235 4933 c-92 -49 -122 -163 -65 -246 98 -142 322 -58 305 113 -12
112 -143 185 -240 133z"/>
<path d="M6358 4695 c-2 -1 -27 -5 -56 -9 -190 -22 -356 -172 -407 -367 -23
-86 -14 -230 18 -308 52 -126 152 -226 273 -275 282 -114 594 42 674 337 28
102 15 229 -34 332 -73 154 -226 267 -381 281 -27 3 -58 6 -67 8 -9 2 -18 3
-20 1z"/>
<path d="M745 4445 c-194 -73 -308 -279 -259 -469 48 -187 197 -314 377 -322
235 -10 434 186 426 421 -9 272 -293 465 -544 370z"/>
<path d="M71 4344 c-73 -30 -91 -129 -34 -185 89 -88 237 19 180 130 -28 55
-90 79 -146 55z"/>
<path d="M5431 4342 c-130 -62 -52 -256 84 -209 34 12 47 23 63 54 50 92 -53
201 -147 155z"/>
<path d="M6015 3389 c-112 -38 -209 -115 -255 -204 -14 -27 -25 -51 -26 -54 0
-3 -5 -15 -10 -26 -5 -11 -9 -65 -9 -120 1 -96 2 -103 39 -172 119 -226 383
-296 591 -158 139 93 208 261 169 418 -39 159 -150 276 -299 316 -49 13 -159
13 -200 0z"/>
<path d="M525 3348 c-121 -22 -265 -123 -328 -231 -55 -94 -83 -234 -66 -332
13 -72 18 -89 50 -153 54 -111 159 -200 293 -249 59 -22 200 -25 272 -7 304
79 461 419 323 701 -97 200 -321 311 -544 271z"/>
<path d="M1470 2912 c-97 -48 -71 -196 37 -209 53 -6 95 16 117 62 27 56 11
111 -44 148 -31 22 -66 22 -110 -1z"/>
<path d="M6833 2916 c-80 -36 -82 -160 -3 -201 85 -44 181 22 165 115 -13 74
-93 117 -162 86z"/>
<path d="M1611 2419 c-141 -86 -96 -301 65 -313 119 -10 206 96 175 213 -26
99 -154 152 -240 100z"/>
<path d="M6633 2421 c-115 -53 -127 -214 -21 -287 76 -53 182 -32 233 44 58
88 23 209 -71 248 -45 19 -91 17 -141 -5z"/>
<path d="M5384 2414 c-187 -66 -242 -330 -97 -470 111 -109 289 -108 398 1
136 137 102 366 -67 455 -54 28 -173 35 -234 14z"/>
<path d="M743 2065 c-96 -34 -180 -110 -228 -204 -77 -152 -45 -338 79 -464
201 -203 544 -140 661 123 121 268 -82 576 -375 569 -50 -1 -98 -9 -137 -24z"/>
<path d="M4705 1846 c-141 -65 -126 -276 23 -315 104 -28 201 39 210 144 8
100 -55 176 -151 182 -31 2 -64 -2 -82 -11z"/>
<path d="M2047 1836 c-65 -24 -120 -73 -155 -141 -29 -57 -36 -163 -14 -227
26 -75 104 -149 177 -170 142 -39 273 13 340 133 26 47 30 64 30 134 0 93 -23
151 -83 210 -69 66 -201 94 -295 61z"/>
<path d="M6120 1833 c-26 -9 -66 -38 -97 -68 -105 -106 -110 -262 -12 -386 73
-92 227 -122 343 -65 101 50 164 162 153 277 -9 101 -56 174 -146 227 -56 33
-172 40 -241 15z"/>
<path d="M4190 1622 c-73 -39 -86 -125 -27 -182 82 -80 220 10 183 119 -22 66
-96 96 -156 63z"/>
<path d="M2932 1339 c-73 -9 -167 -58 -226 -116 -187 -185 -153 -486 72 -635
122 -81 312 -79 437 5 54 36 117 111 149 177 28 60 31 73 31 165 0 88 -3 107
-28 159 -82 176 -248 269 -435 245z"/>
<path d="M5338 1345 c-2 -2 -16 -5 -33 -8 -55 -9 -89 -20 -125 -41 -202 -116
-274 -353 -169 -555 10 -21 41 -60 69 -89 222 -231 606 -125 686 189 51 198
-64 407 -261 477 -51 18 -158 35 -167 27z"/>
<path d="M4130 1172 c-54 -7 -155 -45 -204 -76 -93 -60 -192 -191 -210 -277
-3 -13 -8 -35 -11 -49 -3 -14 -6 -50 -7 -80 -4 -287 220 -515 502 -509 140 3
250 49 345 144 69 70 107 134 130 223 80 312 -143 613 -465 626 -30 1 -66 0
-80 -2z"/>
<path d="M1459 1105 c-69 -14 -106 -34 -152 -82 -133 -136 -84 -379 90 -454
110 -47 233 -25 317 57 102 99 111 276 19 384 -70 82 -170 117 -274 95z"/>
<path d="M2179 500 c-47 -14 -78 -41 -102 -90 -21 -42 -23 -56 -16 -95 30
-160 241 -197 314 -55 46 89 0 202 -95 235 -46 16 -62 17 -101 5z"/>
<path d="M2709 269 c-61 -31 -78 -100 -42 -161 22 -38 72 -61 114 -53 95 19
127 146 50 202 -40 30 -80 34 -122 12z"/>
</g>
</svg>
