<svg width="62" height="24" viewBox="0 0 62 24" fill="none" xmlns="http://www.w3.org/2000/svg">
<path d="M12 19.006C15.866 19.006 19 15.8757 19 12.0143C19 8.15287 15.866 5.02258 12 5.02258C8.13401 5.02258 5 8.15287 5 12.0143C5 15.8757 8.13401 19.006 12 19.006Z" fill="#F9B316"/>
<path d="M12 0.0285034C9.62663 0.0285034 7.30655 0.731456 5.33316 2.04847C3.35977 3.36548 1.8217 5.2374 0.913451 7.42751C0.00519943 9.61762 -0.232441 12.0276 0.230582 14.3526C0.693605 16.6776 1.83649 18.8132 3.51472 20.4895C5.19295 22.1657 7.33115 23.3072 9.65892 23.7697C11.9867 24.2322 14.3995 23.9948 16.5922 23.0876C18.7849 22.1805 20.6591 20.6442 21.9776 18.6732C23.2962 16.7021 24 14.3848 24 12.0143C24 8.83544 22.7357 5.78681 20.4853 3.53905C18.2348 1.29128 15.1826 0.0285034 12 0.0285034ZM12 21.0036C10.22 21.0036 8.47992 20.4764 6.99987 19.4886C5.51983 18.5008 4.36628 17.0969 3.68509 15.4543C3.0039 13.8117 2.82567 12.0043 3.17294 10.2605C3.52021 8.51677 4.37737 6.91503 5.63604 5.65785C6.89472 4.40067 8.49836 3.54452 10.2442 3.19767C11.99 2.85081 13.7996 3.02883 15.4442 3.70921C17.0887 4.38959 18.4943 5.54177 19.4832 7.02006C20.4722 8.49834 21 10.2363 21 12.0143C21 14.3984 20.0518 16.6848 18.364 18.3707C16.6761 20.0565 14.387 21.0036 12 21.0036Z" fill="#F9B316"/>
<path d="M50 19.006C53.866 19.006 57 15.8757 57 12.0143C57 8.15287 53.866 5.02258 50 5.02258C46.134 5.02258 43 8.15287 43 12.0143C43 15.8757 46.134 19.006 50 19.006Z" fill="#F9B316"/>
<path d="M50 0.0285034C47.6266 0.0285034 45.3066 0.731456 43.3332 2.04847C41.3598 3.36548 39.8217 5.2374 38.9135 7.42751C38.0052 9.61762 37.7676 12.0276 38.2306 14.3526C38.6936 16.6776 39.8365 18.8132 41.5147 20.4895C43.193 22.1657 45.3312 23.3072 47.6589 23.7697C49.9867 24.2322 52.3995 23.9948 54.5922 23.0876C56.7849 22.1805 58.6591 20.6442 59.9776 18.6732C61.2962 16.7021 62 14.3848 62 12.0143C62 8.83544 60.7357 5.78681 58.4853 3.53905C56.2349 1.29128 53.1826 0.0285034 50 0.0285034ZM50 21.0036C48.22 21.0036 46.4799 20.4764 44.9999 19.4886C43.5198 18.5008 42.3663 17.0969 41.6851 15.4543C41.0039 13.8117 40.8257 12.0043 41.1729 10.2605C41.5202 8.51677 42.3774 6.91503 43.636 5.65785C44.8947 4.40067 46.4984 3.54452 48.2442 3.19767C49.99 2.85081 51.7996 3.02883 53.4442 3.70921C55.0887 4.38959 56.4943 5.54177 57.4832 7.02006C58.4722 8.49834 59 10.2363 59 12.0143C59 14.3984 58.0518 16.6848 56.364 18.3707C54.6761 20.0565 52.387 21.0036 50 21.0036Z" fill="#F9B316"/>
<path d="M28 0.817582C26.922 1.43204 26.0614 2.36524 25.5367 3.48864C25.0119 4.61203 24.8488 5.87031 25.07 7.09013C23.9671 4.14515 21.9026 1.65739 19.21 0.0285193C26.34 0.0285193 26.9 -0.221183 28 0.817582Z" fill="#F9B316"/>
<path d="M42.79 0.0284879C40.0861 1.65224 38.0106 4.14059 36.9 7.09009C37.1239 5.87346 36.9653 4.61744 36.4461 3.4944C35.9269 2.37135 35.0724 1.4363 34 0.817551C35.11 -0.231202 35.68 0.0284879 42.79 0.0284879Z" fill="#F9B316"/>
<path d="M31.0003 2.02613C30.3575 2.02545 29.7239 2.17954 29.1534 2.47533C28.5828 2.77112 28.092 3.19991 27.7226 3.72536C27.3532 4.25082 27.116 4.85747 27.0311 5.49392C26.9462 6.13038 27.0162 6.77789 27.2351 7.3816C27.4539 7.98532 27.8152 8.52746 28.2884 8.96209C28.7616 9.39673 29.3326 9.71105 29.9532 9.87845C30.5738 10.0458 31.2257 10.0614 31.8536 9.92374C32.4815 9.7861 33.0669 9.49933 33.5603 9.08773C34.1906 8.56187 34.6436 7.85495 34.8578 7.063C35.0719 6.27105 35.0367 5.43246 34.7571 4.66115C34.4775 3.88983 33.967 3.22319 33.2948 2.75176C32.6227 2.28034 31.8216 2.02699 31.0003 2.02613ZM31.0003 8.019C30.6047 8.019 30.218 7.90184 29.8891 7.68234C29.5602 7.46284 29.3039 7.15085 29.1525 6.78583C29.0012 6.42081 28.9615 6.01916 29.0387 5.63166C29.1159 5.24416 29.3064 4.88821 29.5861 4.60884C29.8658 4.32947 30.2221 4.13921 30.6101 4.06213C30.9981 3.98506 31.4002 4.02462 31.7657 4.17581C32.1311 4.32701 32.4435 4.58305 32.6632 4.91155C32.883 5.24006 33.0003 5.62628 33.0003 6.02138C33.0003 6.55118 32.7896 7.05929 32.4145 7.43391C32.0394 7.80854 31.5307 8.019 31.0003 8.019Z" fill="#F9B316"/>
</svg>
